<?xml version="1.0" standalone="no"?>
<!DOCTYPE svg PUBLIC "-//W3C//DTD SVG 20010904//EN"
 "http://www.w3.org/TR/2001/REC-SVG-20010904/DTD/svg10.dtd">
<svg version="1.0" xmlns="http://www.w3.org/2000/svg"
 width="729.000000pt" height="665.000000pt" viewBox="0 0 729.000000 665.000000"
 preserveAspectRatio="xMidYMid meet">

<g transform="translate(0.000000,665.000000) scale(0.100000,-0.100000)"
fill="#000000" stroke="none">
<path d="M3455 6524 c-226 -33 -463 -127 -580 -229 -57 -50 -66 -54 -150 -70
-211 -40 -334 -75 -471 -136 -62 -27 -115 -49 -118 -49 -3 0 -48 -28 -99 -61
-50 -34 -113 -75 -139 -93 -27 -17 -48 -34 -48 -38 0 -4 -24 -25 -52 -47 -74
-55 -173 -152 -230 -225 -26 -33 -54 -68 -61 -76 -15 -16 -73 -101 -96 -140
-8 -14 -32 -53 -53 -87 -21 -35 -38 -67 -38 -73 0 -6 -9 -28 -20 -48 -61 -115
-112 -260 -158 -452 l-25 -105 -4 -850 c-5 -898 -3 -932 40 -973 71 -67 233
-68 275 -3 14 21 33 45 44 54 1 1 5 394 8 872 l6 870 26 90 c15 50 33 114 42
144 34 119 179 384 247 452 10 10 27 35 38 56 10 21 50 65 87 98 38 33 96 86
128 118 33 31 65 57 70 57 6 0 33 19 60 43 41 35 274 160 284 152 2 -1 -8 -43
-22 -92 -41 -144 -49 -222 -43 -398 6 -155 10 -181 55 -320 23 -71 65 -171 77
-185 7 -8 27 -40 44 -70 63 -114 155 -208 335 -347 289 -222 854 -265 1176
-89 14 7 41 19 61 25 20 6 49 24 65 39 16 15 48 40 71 56 101 68 249 229 293
321 14 28 28 52 31 55 20 16 91 179 116 265 27 96 28 109 28 315 0 214 -1 215
-33 323 -29 95 -72 189 -151 332 -13 22 -45 63 -72 90 -27 28 -49 56 -49 62 0
6 -17 24 -37 39 -21 16 -60 50 -87 77 -27 26 -54 47 -59 47 -6 0 -24 11 -41
24 -39 29 -188 106 -207 106 -8 0 -27 7 -43 15 -15 8 -57 20 -92 25 -35 6 -76
15 -90 21 -29 10 -288 21 -339 13z m250 -379 c70 -12 212 -64 325 -119 20 -10
42 -30 51 -44 8 -15 29 -34 45 -42 36 -18 61 -46 79 -85 7 -17 23 -39 35 -50
30 -27 66 -85 90 -144 26 -67 61 -244 61 -311 0 -133 -71 -370 -128 -427 -19
-18 -40 -48 -48 -66 -14 -33 -34 -55 -125 -135 -128 -114 -338 -192 -514 -192
-110 0 -236 33 -354 93 -59 29 -123 69 -142 88 -19 19 -52 48 -72 66 -20 17
-44 46 -53 64 -10 17 -26 41 -36 53 -19 20 -70 120 -102 201 -21 51 -47 193
-47 254 0 73 27 208 57 285 15 39 31 72 35 74 3 2 19 27 34 55 32 61 102 153
141 184 73 59 140 104 163 110 14 3 30 9 35 13 22 17 124 53 200 70 99 22 167
24 270 5z"/>
<path d="M5800 3931 c-52 -9 -102 -20 -110 -23 -8 -3 -37 -14 -65 -24 -80 -28
-237 -114 -280 -153 -22 -20 -54 -42 -71 -49 -17 -8 -36 -23 -42 -35 -6 -12
-38 -53 -72 -92 -34 -38 -67 -81 -73 -95 -7 -14 -32 -59 -58 -101 -59 -100
-96 -213 -115 -356 -12 -95 -14 -225 -11 -771 5 -659 10 -761 42 -837 57 -134
127 -262 186 -342 74 -99 215 -226 286 -257 23 -10 49 -27 58 -36 28 -31 189
-87 349 -121 32 -7 111 -12 175 -12 114 0 130 3 345 57 32 8 90 34 130 57 39
23 93 53 119 68 55 30 189 158 263 252 62 78 134 211 162 299 55 170 53 145
49 960 -3 732 -4 757 -24 825 -43 145 -88 241 -149 321 -21 27 -57 74 -80 104
-78 103 -260 238 -399 297 -181 76 -408 100 -615 64z m402 -389 c48 -16 113
-45 145 -63 70 -42 231 -201 250 -249 8 -19 23 -53 33 -75 69 -146 72 -189 68
-925 l-3 -635 -24 -65 c-59 -164 -124 -269 -220 -355 -61 -55 -165 -115 -246
-142 -70 -23 -96 -27 -210 -27 -107 0 -143 4 -205 23 -106 32 -310 161 -310
195 0 6 -22 34 -48 61 -35 37 -58 74 -84 140 -79 194 -73 123 -73 875 l0 675
28 70 c68 170 84 200 154 277 36 40 72 77 82 82 9 5 30 21 46 36 32 30 162
100 186 100 8 0 41 9 74 20 88 30 238 22 357 -18z"/>
<path d="M1129 2476 c-3 -4 -45 -13 -93 -22 -47 -8 -107 -24 -132 -34 -25 -11
-52 -20 -60 -20 -29 0 -276 -144 -323 -189 -27 -25 -64 -60 -82 -77 -52 -48
-96 -98 -113 -132 -9 -17 -25 -37 -35 -44 -11 -8 -27 -32 -36 -53 -9 -22 -26
-57 -36 -78 -46 -89 -88 -202 -94 -255 -4 -31 -13 -84 -21 -117 -8 -33 -14
-98 -14 -145 0 -93 36 -369 51 -385 5 -5 9 -16 9 -24 0 -8 30 -75 68 -149 89
-179 85 -172 97 -172 6 0 26 -24 44 -54 18 -30 45 -63 59 -72 15 -9 48 -39 75
-65 80 -81 126 -112 257 -175 93 -45 205 -84 239 -84 14 0 49 -7 76 -16 66
-20 282 -30 365 -16 129 22 186 34 240 54 96 35 274 121 300 145 14 13 29 23
33 23 25 0 307 305 307 331 0 6 26 65 59 132 80 167 106 290 106 507 -1 112
-6 177 -19 235 -20 92 -66 245 -77 260 -4 6 -22 40 -40 75 -17 36 -52 93 -76
128 -74 103 -235 256 -318 301 -22 12 -62 35 -90 51 -63 37 -110 58 -155 70
-19 5 -78 21 -130 36 -81 23 -120 27 -265 31 -93 3 -173 2 -176 -1z m237 -366
c86 -15 263 -65 298 -84 121 -67 266 -213 358 -361 65 -105 95 -370 63 -552
-9 -54 -25 -119 -35 -144 -27 -72 -174 -269 -200 -269 -4 0 -19 -17 -33 -38
-42 -65 -213 -151 -367 -186 -127 -28 -197 -30 -300 -6 -103 23 -226 65 -250
85 -8 7 -26 16 -40 20 -14 4 -36 18 -50 31 -73 68 -103 94 -110 94 -4 0 -11
10 -17 23 -6 12 -28 42 -50 67 -42 48 -54 68 -101 170 -49 109 -57 152 -57
320 0 169 6 203 61 332 113 265 344 443 642 493 99 17 116 17 188 5z"/>
</g>
</svg>
